<svg width="87" height="87" viewBox="0 0 87 87" fill="none" xmlns="http://www.w3.org/2000/svg">
<path d="M36.4542 0.0679145C38.0735 -0.172728 39.7226 0.231598 41.047 1.19398C42.3713 2.15635 43.2652 3.59995 43.5365 5.21442C43.8077 6.8289 43.4347 8.48536 42.4976 9.82771C41.5605 11.1701 40.134 12.0911 38.525 12.3929C31.2457 13.6274 24.6386 17.3994 19.8748 23.0402C15.1111 28.681 12.4984 35.8263 12.5 43.2096C12.5 51.4976 15.7924 59.4462 21.6529 65.3067C27.5134 71.1672 35.462 74.4596 43.75 74.4596V86.9596C19.5875 86.9596 0 67.3763 0 43.2096C0 21.7721 15.525 3.58458 36.4542 0.0679145Z" fill="url(#paint0_linear_30_50)"/>
<path d="M63.3833 11.0783C63.9314 10.4669 64.5947 9.96939 65.3351 9.61436C66.0755 9.25933 66.8787 9.05368 67.6986 9.00918C68.5186 8.96468 69.3393 9.0822 70.1138 9.35502C70.8883 9.62783 71.6014 10.0506 72.2125 10.5992C76.7915 14.6993 80.4533 19.7199 82.9584 25.3326C85.4636 30.9453 86.7556 37.0236 86.75 43.17C86.75 67.3367 67.1625 86.92 43 86.92V74.42C49.3257 74.4201 55.5024 72.5005 60.7137 68.9149C65.9251 65.3294 69.9256 60.2467 72.1864 54.3389C74.4472 48.431 74.8619 41.9762 73.3756 35.8276C71.8894 29.679 68.5722 24.1262 63.8625 19.9033C62.6288 18.7965 61.8853 17.245 61.7954 15.59C61.7056 13.9351 62.2768 12.3122 63.3833 11.0783Z" fill="url(#paint1_linear_30_50)"/>
<defs>
<linearGradient id="paint0_linear_30_50" x1="2187.5" y1="458.364" x2="2187.5" y2="7982.28" gradientUnits="userSpaceOnUse">
<stop stop-color="#0B3E99"/>
<stop offset="1" stop-color="#0B3E99" stop-opacity="0.55"/>
</linearGradient>
<linearGradient id="paint1_linear_30_50" x1="2230.5" y1="1196.5" x2="2230.5" y2="6799.73" gradientUnits="userSpaceOnUse">
<stop stop-color="#0B3E99" stop-opacity="0"/>
<stop offset="1" stop-color="#0B3E99" stop-opacity="0.55"/>
</linearGradient>
</defs>
</svg>
